<svg xmlns="http://www.w3.org/2000/svg" xmlns:xlink="http://www.w3.org/1999/xlink" width="500" zoomAndPan="magnify" viewBox="0 0 375 374.999991" height="500" preserveAspectRatio="xMidYMid meet" version="1.0"><defs><clipPath id="f675b7a662"><path d="M 121.421875 105.15625 L 256.96875 105.15625 L 256.96875 257.230469 L 121.421875 257.230469 Z M 121.421875 105.15625 " clip-rule="nonzero"/></clipPath><clipPath id="dfa6a6300e"><path d="M 17.984375 10.207031 L 361.8125 10.207031 L 361.8125 354.035156 L 17.984375 354.035156 Z M 17.984375 10.207031 " clip-rule="nonzero"/></clipPath></defs><g clip-path="url(#f675b7a662)"><path fill="#008037" d="M 222.792969 159.167969 C 223.359375 161.125 223.667969 163.332031 223.667969 165.824219 C 223.667969 170.226562 222.699219 174.476562 220.964844 178.367188 C 223.511719 176.5625 225.792969 174.707031 227.996094 173.003906 C 235.808594 166.960938 243.183594 164.859375 248.890625 164.507812 C 251.949219 164.320312 256.964844 161.96875 256.964844 159.167969 Z M 221.675781 165.824219 C 221.675781 150.324219 207.453125 146.121094 194.8125 144.109375 C 182.074219 142.078125 167.335938 137.542969 167.335938 123.96875 C 167.335938 117.316406 171.507812 110.703125 178.660156 110.703125 C 189.195312 110.703125 191.039062 118.671875 191.082031 119.808594 C 191.128906 120.949219 188.015625 121.757812 187.613281 124.011719 C 187.132812 126.726562 188.316406 129.441406 190.03125 131.628906 C 191.558594 133.585938 193.761719 137.539062 195.957031 137.191406 C 198.304688 136.816406 199.160156 132.8125 199.816406 130.1875 C 200.476562 127.558594 201.617188 125.324219 200.519531 122.875 C 199.160156 119.835938 197.796875 121.339844 196.746094 119.152344 C 196.140625 117.898438 193.808594 105.1875 179.714844 105.1875 C 169.886719 105.1875 160.929688 113.285156 160.050781 122.480469 C 158.792969 135.644531 164 140.605469 174.972656 145.773438 C 192.070312 153.820312 209.824219 153.476562 209.824219 164.773438 C 209.824219 175.804688 206.050781 181.671875 199.554688 185.960938 C 198.433594 186.703125 196.300781 187.675781 194.214844 188.390625 L 194.214844 196.140625 C 194.644531 196.082031 195.078125 196.015625 195.515625 195.945312 C 210.085938 193.492188 221.675781 180.53125 221.675781 165.824219 Z M 204.859375 159.167969 L 121.421875 159.167969 C 121.421875 161.96875 126.441406 164.320312 129.5 164.507812 C 135.207031 164.859375 142.578125 166.960938 150.394531 173.003906 C 158.371094 179.171875 167.359375 187.296875 186.164062 188.089844 L 186.164062 211.949219 C 187.257812 212.148438 188.476562 212.257812 189.808594 212.257812 C 190.367188 212.257812 191.234375 212.222656 192.222656 212.117188 L 192.222656 186.929688 C 202.3125 184.726562 207.835938 176.132812 207.835938 164.773438 C 207.832031 162.433594 206.871094 160.675781 204.859375 159.167969 Z M 186.167969 230.175781 C 187.863281 231.207031 189.949219 231.660156 192.222656 231.964844 L 192.222656 222.648438 C 190.199219 222.785156 188.160156 222.757812 186.167969 222.558594 Z M 206.226562 237.710938 C 202.976562 235.257812 198.765625 234.691406 191.257812 233.769531 C 182.371094 232.679688 180.027344 227.105469 179.765625 221.226562 C 177.460938 220.464844 175.328125 219.402344 173.484375 218.015625 C 173.058594 220.015625 172.867188 222.101562 172.867188 224.226562 C 172.867188 233.070312 182.421875 236.824219 189.195312 237.796875 C 196.21875 238.804688 202.800781 239.066406 203.722656 239.460938 C 204.65625 239.859375 205.214844 240.292969 205.613281 240.730469 C 206.007812 241.167969 207.058594 241.78125 207.71875 241.34375 C 208.378906 240.90625 207.847656 238.9375 206.226562 237.710938 Z M 182.261719 210.5625 C 182.828125 209.980469 183.476562 209.472656 184.175781 209.027344 L 184.175781 203.617188 C 182.488281 204.566406 181.027344 205.628906 179.773438 206.800781 C 179.773438 208.257812 180.644531 209.582031 182.261719 210.5625 Z M 201.574219 208.027344 C 201.574219 212.230469 196.042969 214.242188 189.808594 214.242188 C 183.578125 214.242188 177.78125 211.792969 177.78125 206.800781 C 177.78125 200.640625 180.320312 198.449219 184.175781 197.457031 L 184.175781 188.8125 C 175.722656 189.464844 168.742188 197.21875 168.742188 203.824219 C 168.742188 208.640625 169.59375 216.1875 182.960938 220.023438 C 197.007812 224.050781 213.160156 215.207031 213.160156 206.363281 C 213.160156 202.074219 210.957031 199.996094 208.070312 199.097656 C 205.671875 198.347656 202.828125 197.28125 194.214844 199.761719 L 194.214844 205.21875 C 195.574219 204.84375 196.785156 204.613281 197.972656 204.613281 C 200.433594 204.613281 201.574219 205.398438 201.574219 208.027344 Z M 155.660156 257.238281 L 222.730469 257.238281 C 222.730469 256.144531 219.175781 254.566406 216.101562 254.304688 C 213.027344 254.039062 208.90625 253.871094 207.980469 253.078125 C 206.710938 251.984375 204.679688 251.226562 202.011719 250.582031 C 199.289062 249.925781 192.222656 249.355469 192.222656 245.503906 L 192.222656 240.15625 C 191.117188 240.046875 190.011719 239.921875 188.910156 239.761719 C 188.0625 239.640625 187.132812 239.46875 186.167969 239.246094 L 186.167969 245.503906 C 186.167969 249.355469 179.101562 249.925781 176.378906 250.582031 C 173.710938 251.226562 171.679688 251.984375 170.410156 253.078125 C 169.484375 253.871094 165.359375 254.042969 162.289062 254.304688 C 159.214844 254.566406 155.660156 256.144531 155.660156 257.238281 Z M 155.660156 257.238281 " fill-opacity="1" fill-rule="nonzero"/></g><g clip-path="url(#dfa6a6300e)"><path fill="#008037" d="M 241.472656 354.035156 L 138.324219 354.035156 C 137.761719 354.035156 137.199219 354.007812 136.640625 353.949219 C 136.078125 353.894531 135.523438 353.8125 134.96875 353.703125 C 134.417969 353.59375 133.871094 353.457031 133.332031 353.292969 C 132.796875 353.128906 132.265625 352.941406 131.746094 352.726562 C 131.226562 352.507812 130.71875 352.269531 130.21875 352.003906 C 129.722656 351.738281 129.242188 351.449219 128.773438 351.136719 C 128.304688 350.824219 127.851562 350.488281 127.417969 350.132812 C 126.984375 349.773438 126.566406 349.398438 126.167969 349 C 125.769531 348.601562 125.390625 348.183594 125.035156 347.75 C 124.679688 347.3125 124.34375 346.863281 124.03125 346.394531 C 123.71875 345.925781 123.429688 345.441406 123.164062 344.945312 C 122.898438 344.449219 122.65625 343.941406 122.441406 343.421875 C 122.226562 342.902344 122.035156 342.371094 121.875 341.832031 C 121.710938 341.292969 121.574219 340.75 121.464844 340.195312 C 121.351562 339.644531 121.269531 339.085938 121.214844 338.527344 C 121.160156 337.96875 121.132812 337.40625 121.132812 336.84375 L 121.132812 250.886719 L 35.175781 250.886719 C 34.613281 250.886719 34.050781 250.859375 33.492188 250.804688 C 32.929688 250.746094 32.375 250.664062 31.824219 250.554688 C 31.269531 250.445312 30.726562 250.308594 30.1875 250.144531 C 29.648438 249.980469 29.117188 249.792969 28.597656 249.578125 C 28.078125 249.363281 27.570312 249.121094 27.074219 248.855469 C 26.574219 248.589844 26.09375 248.300781 25.625 247.988281 C 25.15625 247.675781 24.707031 247.339844 24.269531 246.984375 C 23.835938 246.625 23.417969 246.25 23.019531 245.851562 C 22.621094 245.453125 22.246094 245.035156 21.886719 244.601562 C 21.53125 244.164062 21.195312 243.714844 20.882812 243.246094 C 20.570312 242.777344 20.28125 242.296875 20.015625 241.796875 C 19.75 241.300781 19.507812 240.792969 19.292969 240.273438 C 19.078125 239.753906 18.890625 239.222656 18.726562 238.683594 C 18.5625 238.144531 18.425781 237.601562 18.316406 237.046875 C 18.207031 236.496094 18.125 235.941406 18.066406 235.378906 C 18.011719 234.820312 17.984375 234.257812 17.984375 233.695312 L 17.984375 130.546875 C 17.984375 129.984375 18.011719 129.421875 18.066406 128.863281 C 18.125 128.300781 18.207031 127.746094 18.316406 127.191406 C 18.425781 126.640625 18.5625 126.09375 18.726562 125.558594 C 18.890625 125.019531 19.078125 124.488281 19.292969 123.96875 C 19.507812 123.449219 19.75 122.941406 20.015625 122.441406 C 20.28125 121.945312 20.570312 121.464844 20.882812 120.996094 C 21.195312 120.527344 21.53125 120.078125 21.886719 119.640625 C 22.246094 119.207031 22.621094 118.789062 23.019531 118.390625 C 23.417969 117.992188 23.835938 117.613281 24.269531 117.257812 C 24.707031 116.902344 25.15625 116.566406 25.625 116.253906 C 26.09375 115.941406 26.574219 115.652344 27.074219 115.386719 C 27.570312 115.121094 28.078125 114.878906 28.597656 114.664062 C 29.117188 114.449219 29.648438 114.257812 30.1875 114.097656 C 30.726562 113.933594 31.269531 113.796875 31.824219 113.6875 C 32.375 113.578125 32.929688 113.492188 33.492188 113.4375 C 34.050781 113.382812 34.613281 113.355469 35.175781 113.355469 L 121.132812 113.355469 L 121.132812 27.398438 C 121.132812 26.835938 121.160156 26.273438 121.214844 25.714844 C 121.269531 25.152344 121.351562 24.597656 121.464844 24.046875 C 121.574219 23.492188 121.710938 22.949219 121.875 22.410156 C 122.035156 21.871094 122.226562 21.339844 122.441406 20.820312 C 122.65625 20.300781 122.898438 19.792969 123.164062 19.296875 C 123.429688 18.800781 123.71875 18.316406 124.03125 17.847656 C 124.34375 17.378906 124.679688 16.929688 125.035156 16.492188 C 125.390625 16.058594 125.769531 15.640625 126.167969 15.242188 C 126.566406 14.84375 126.984375 14.46875 127.417969 14.109375 C 127.851562 13.753906 128.304688 13.417969 128.773438 13.105469 C 129.242188 12.792969 129.722656 12.503906 130.21875 12.238281 C 130.71875 11.972656 131.226562 11.730469 131.746094 11.515625 C 132.265625 11.300781 132.796875 11.113281 133.332031 10.949219 C 133.871094 10.785156 134.417969 10.648438 134.96875 10.539062 C 135.523438 10.429688 136.078125 10.347656 136.640625 10.289062 C 137.199219 10.234375 137.761719 10.207031 138.324219 10.207031 L 241.472656 10.207031 C 242.035156 10.207031 242.597656 10.234375 243.15625 10.289062 C 243.71875 10.347656 244.273438 10.429688 244.824219 10.539062 C 245.378906 10.648438 245.921875 10.785156 246.460938 10.949219 C 247 11.113281 247.53125 11.300781 248.050781 11.515625 C 248.570312 11.730469 249.078125 11.972656 249.574219 12.238281 C 250.074219 12.503906 250.554688 12.792969 251.023438 13.105469 C 251.492188 13.417969 251.941406 13.753906 252.378906 14.109375 C 252.8125 14.46875 253.230469 14.84375 253.628906 15.242188 C 254.027344 15.640625 254.402344 16.058594 254.761719 16.492188 C 255.117188 16.929688 255.453125 17.378906 255.765625 17.847656 C 256.078125 18.316406 256.367188 18.800781 256.632812 19.296875 C 256.898438 19.792969 257.140625 20.300781 257.355469 20.820312 C 257.570312 21.339844 257.757812 21.871094 257.921875 22.410156 C 258.085938 22.949219 258.222656 23.492188 258.332031 24.046875 C 258.441406 24.597656 258.523438 25.152344 258.582031 25.714844 C 258.636719 26.273438 258.664062 26.835938 258.664062 27.398438 L 258.664062 113.355469 L 344.621094 113.355469 C 345.183594 113.355469 345.746094 113.382812 346.304688 113.4375 C 346.863281 113.492188 347.421875 113.578125 347.972656 113.6875 C 348.527344 113.796875 349.070312 113.933594 349.609375 114.097656 C 350.148438 114.257812 350.679688 114.449219 351.199219 114.664062 C 351.71875 114.878906 352.226562 115.121094 352.722656 115.386719 C 353.21875 115.652344 353.703125 115.941406 354.171875 116.253906 C 354.636719 116.566406 355.089844 116.902344 355.527344 117.257812 C 355.960938 117.613281 356.378906 117.992188 356.777344 118.390625 C 357.171875 118.789062 357.550781 119.207031 357.910156 119.640625 C 358.265625 120.078125 358.601562 120.527344 358.914062 120.996094 C 359.226562 121.464844 359.515625 121.945312 359.78125 122.441406 C 360.046875 122.941406 360.285156 123.449219 360.503906 123.96875 C 360.71875 124.488281 360.90625 125.019531 361.070312 125.554688 C 361.234375 126.09375 361.371094 126.640625 361.480469 127.191406 C 361.589844 127.746094 361.671875 128.300781 361.726562 128.863281 C 361.785156 129.421875 361.8125 129.984375 361.8125 130.546875 L 361.8125 233.695312 C 361.8125 234.257812 361.785156 234.820312 361.726562 235.378906 C 361.671875 235.941406 361.589844 236.496094 361.480469 237.046875 C 361.371094 237.601562 361.234375 238.144531 361.070312 238.683594 C 360.90625 239.222656 360.71875 239.753906 360.503906 240.273438 C 360.285156 240.792969 360.046875 241.300781 359.78125 241.796875 C 359.515625 242.296875 359.226562 242.777344 358.914062 243.246094 C 358.601562 243.714844 358.265625 244.164062 357.910156 244.601562 C 357.550781 245.035156 357.171875 245.453125 356.777344 245.851562 C 356.378906 246.25 355.960938 246.625 355.527344 246.984375 C 355.089844 247.339844 354.636719 247.675781 354.171875 247.988281 C 353.703125 248.300781 353.21875 248.589844 352.722656 248.855469 C 352.226562 249.121094 351.71875 249.363281 351.199219 249.578125 C 350.679688 249.792969 350.148438 249.980469 349.609375 250.144531 C 349.070312 250.308594 348.527344 250.445312 347.972656 250.554688 C 347.421875 250.664062 346.863281 250.746094 346.304688 250.804688 C 345.746094 250.859375 345.183594 250.886719 344.621094 250.886719 L 258.664062 250.886719 L 258.664062 336.84375 C 258.664062 337.40625 258.636719 337.96875 258.582031 338.527344 C 258.523438 339.085938 258.441406 339.644531 258.332031 340.195312 C 258.222656 340.75 258.085938 341.292969 257.921875 341.832031 C 257.757812 342.371094 257.570312 342.902344 257.355469 343.421875 C 257.140625 343.941406 256.898438 344.449219 256.632812 344.945312 C 256.367188 345.441406 256.078125 345.925781 255.765625 346.394531 C 255.453125 346.863281 255.117188 347.3125 254.761719 347.75 C 254.402344 348.183594 254.027344 348.601562 253.628906 349 C 253.230469 349.398438 252.8125 349.773438 252.378906 350.132812 C 251.941406 350.488281 251.492188 350.824219 251.023438 351.136719 C 250.554688 351.449219 250.074219 351.738281 249.574219 352.003906 C 249.078125 352.269531 248.570312 352.507812 248.050781 352.726562 C 247.53125 352.941406 247 353.128906 246.460938 353.292969 C 245.921875 353.457031 245.378906 353.59375 244.824219 353.703125 C 244.273438 353.8125 243.71875 353.894531 243.15625 353.949219 C 242.597656 354.007812 242.035156 354.035156 241.472656 354.035156 Z M 155.515625 319.652344 L 224.28125 319.652344 L 224.28125 233.695312 C 224.28125 233.132812 224.308594 232.570312 224.363281 232.007812 C 224.417969 231.449219 224.5 230.894531 224.609375 230.339844 C 224.722656 229.789062 224.859375 229.242188 225.019531 228.703125 C 225.183594 228.164062 225.375 227.636719 225.589844 227.117188 C 225.804688 226.59375 226.046875 226.085938 226.3125 225.589844 C 226.574219 225.09375 226.863281 224.613281 227.179688 224.144531 C 227.492188 223.675781 227.824219 223.222656 228.183594 222.789062 C 228.539062 222.351562 228.917969 221.9375 229.316406 221.539062 C 229.714844 221.140625 230.128906 220.761719 230.566406 220.40625 C 231 220.046875 231.453125 219.714844 231.921875 219.402344 C 232.390625 219.085938 232.871094 218.796875 233.367188 218.535156 C 233.863281 218.269531 234.371094 218.027344 234.894531 217.8125 C 235.414062 217.597656 235.941406 217.40625 236.480469 217.242188 C 237.019531 217.082031 237.566406 216.945312 238.117188 216.832031 C 238.671875 216.722656 239.226562 216.640625 239.785156 216.585938 C 240.347656 216.53125 240.910156 216.503906 241.472656 216.503906 L 327.429688 216.503906 L 327.429688 147.738281 L 241.472656 147.738281 C 240.910156 147.738281 240.347656 147.710938 239.785156 147.65625 C 239.226562 147.601562 238.671875 147.519531 238.117188 147.40625 C 237.566406 147.296875 237.019531 147.160156 236.480469 146.996094 C 235.941406 146.835938 235.414062 146.644531 234.894531 146.429688 C 234.371094 146.214844 233.863281 145.972656 233.367188 145.707031 C 232.871094 145.441406 232.390625 145.152344 231.921875 144.839844 C 231.453125 144.527344 231 144.191406 230.566406 143.835938 C 230.128906 143.480469 229.714844 143.101562 229.316406 142.703125 C 228.917969 142.304688 228.539062 141.886719 228.183594 141.453125 C 227.824219 141.019531 227.492188 140.566406 227.179688 140.097656 C 226.863281 139.628906 226.574219 139.148438 226.308594 138.652344 C 226.046875 138.15625 225.804688 137.644531 225.589844 137.125 C 225.375 136.605469 225.183594 136.074219 225.019531 135.539062 C 224.855469 135 224.722656 134.453125 224.609375 133.902344 C 224.5 133.347656 224.417969 132.792969 224.363281 132.230469 C 224.308594 131.671875 224.28125 131.109375 224.28125 130.546875 L 224.28125 44.589844 L 155.515625 44.589844 L 155.515625 130.546875 C 155.515625 131.109375 155.488281 131.671875 155.433594 132.230469 C 155.378906 132.792969 155.296875 133.347656 155.183594 133.902344 C 155.074219 134.453125 154.9375 135 154.773438 135.539062 C 154.613281 136.074219 154.421875 136.605469 154.207031 137.125 C 153.992188 137.644531 153.75 138.15625 153.484375 138.652344 C 153.21875 139.148438 152.929688 139.628906 152.617188 140.097656 C 152.304688 140.566406 151.96875 141.019531 151.613281 141.453125 C 151.257812 141.886719 150.878906 142.304688 150.480469 142.703125 C 150.082031 143.101562 149.664062 143.480469 149.230469 143.835938 C 148.796875 144.191406 148.34375 144.527344 147.875 144.839844 C 147.40625 145.152344 146.925781 145.441406 146.429688 145.707031 C 145.929688 145.972656 145.421875 146.214844 144.902344 146.429688 C 144.382812 146.644531 143.851562 146.835938 143.316406 146.996094 C 142.777344 147.160156 142.230469 147.296875 141.679688 147.40625 C 141.125 147.519531 140.570312 147.601562 140.007812 147.65625 C 139.449219 147.710938 138.886719 147.738281 138.324219 147.738281 L 52.367188 147.738281 L 52.367188 216.503906 L 138.324219 216.503906 C 138.886719 216.503906 139.449219 216.53125 140.007812 216.585938 C 140.570312 216.640625 141.125 216.722656 141.679688 216.832031 C 142.230469 216.945312 142.777344 217.082031 143.316406 217.242188 C 143.851562 217.40625 144.382812 217.597656 144.902344 217.8125 C 145.421875 218.027344 145.929688 218.269531 146.429688 218.535156 C 146.925781 218.796875 147.40625 219.085938 147.875 219.402344 C 148.34375 219.714844 148.796875 220.046875 149.230469 220.40625 C 149.664062 220.761719 150.082031 221.140625 150.480469 221.539062 C 150.878906 221.9375 151.257812 222.351562 151.613281 222.789062 C 151.96875 223.222656 152.304688 223.675781 152.617188 224.144531 C 152.929688 224.613281 153.21875 225.09375 153.484375 225.589844 C 153.75 226.085938 153.992188 226.59375 154.207031 227.117188 C 154.421875 227.636719 154.613281 228.164062 154.773438 228.703125 C 154.9375 229.242188 155.074219 229.789062 155.183594 230.339844 C 155.296875 230.894531 155.378906 231.449219 155.433594 232.007812 C 155.488281 232.570312 155.515625 233.132812 155.515625 233.695312 Z M 155.515625 319.652344 " fill-opacity="1" fill-rule="nonzero"/></g></svg>